<svg width="26" height="20" viewBox="0 0 26 20" fill="none" xmlns="http://www.w3.org/2000/svg">
<path d="M8.83052 19.0065L0.380522 10.5565C0.136871 10.3127 0 9.98219 0 9.63752C0 9.29286 0.136871 8.9623 0.380522 8.71852L2.21852 6.88052C2.4623 6.63687 2.79286 6.5 3.13752 6.5C3.48219 6.5 3.81274 6.63687 4.05652 6.88052L9.74952 12.5725L21.9415 0.380522C22.1853 0.136871 22.5159 0 22.8605 0C23.2052 0 23.5357 0.136871 23.7795 0.380522L25.6175 2.21852C25.8612 2.4623 25.998 2.79286 25.998 3.13752C25.998 3.48219 25.8612 3.81274 25.6175 4.05652L10.6675 19.0065C10.4237 19.2502 10.0932 19.387 9.74852 19.387C9.40386 19.387 9.0733 19.2502 8.82952 19.0065H8.83052Z" fill="#06C167"/>
</svg>
