<svg width="26" height="23" viewBox="0 0 26 23" fill="none" xmlns="http://www.w3.org/2000/svg">
<path d="M13 3.11866e-06C11.2926 -0.000917017 9.60168 0.33471 8.02403 0.987695C6.44638 1.64068 5.01291 2.59822 3.80556 3.80556C2.59822 5.01291 1.64068 6.44638 0.987694 8.02403C0.334709 9.60168 -0.000918249 11.2926 1.88682e-06 13V15.438C0.00024418 15.7399 0.0845767 16.0357 0.243543 16.2924C0.40251 16.549 0.629826 16.7563 0.900002 16.891L1.63 17.256C1.68006 18.7301 2.30084 20.127 3.36133 21.1521C4.42183 22.1771 5.83909 22.7501 7.314 22.75H8.531C8.8543 22.75 9.16436 22.6216 9.39297 22.393C9.62157 22.1644 9.75 21.8543 9.75 21.531V12.594C9.75 12.2707 9.62157 11.9606 9.39297 11.732C9.16436 11.5034 8.8543 11.375 8.531 11.375H7.313C6.55604 11.3741 5.80656 11.5247 5.10875 11.8181C4.41094 12.1114 3.77894 12.5415 3.25 13.083V13C3.25 10.4141 4.27723 7.93419 6.10571 6.10571C7.93419 4.27723 10.4141 3.25 13 3.25C15.5859 3.25 18.0658 4.27723 19.8943 6.10571C21.7228 7.93419 22.75 10.4141 22.75 13V13.083C22.2212 12.5416 21.5893 12.1116 20.8917 11.8183C20.1941 11.5249 19.4448 11.3742 18.688 11.375H17.469C17.3089 11.375 17.1504 11.4065 17.0025 11.4678C16.8546 11.5291 16.7202 11.6188 16.607 11.732C16.4938 11.8452 16.4041 11.9796 16.3428 12.1275C16.2815 12.2754 16.25 12.4339 16.25 12.594V21.532C16.25 21.6921 16.2815 21.8506 16.3428 21.9985C16.4041 22.1464 16.4938 22.2808 16.607 22.394C16.7202 22.5072 16.8546 22.597 17.0025 22.6582C17.1504 22.7195 17.3089 22.751 17.469 22.751H18.688C20.1629 22.7511 21.5802 22.1781 22.6407 21.1531C23.7012 20.128 24.3219 18.7311 24.372 17.257L25.102 16.892C25.3722 16.7573 25.5995 16.55 25.7585 16.2934C25.9174 16.0367 26.0018 15.7409 26.002 15.439V13C26.0029 11.2924 25.6672 9.60135 25.0141 8.02357C24.361 6.44579 23.4033 5.01223 22.1957 3.80486C20.9882 2.59748 19.5545 1.63999 17.9766 0.98712C16.3987 0.334253 14.7076 -0.00117996 13 3.11866e-06Z" fill="#06C167"/>
</svg>
