<svg width="18" height="18" viewBox="0 0 18 18" fill="none" xmlns="http://www.w3.org/2000/svg">
<path d="M8.923 4.347C8.01835 4.347 7.13401 4.61526 6.38182 5.11786C5.62963 5.62045 5.04337 6.33482 4.69718 7.17061C4.35098 8.0064 4.2604 8.92608 4.43689 9.81334C4.61338 10.7006 5.04901 11.5156 5.68869 12.1553C6.32838 12.795 7.14339 13.2306 8.03066 13.4071C8.91793 13.5836 9.8376 13.493 10.6734 13.1468C11.5092 12.8006 12.2235 12.2144 12.7261 11.4622C13.2287 10.71 13.497 9.82565 13.497 8.921C13.4981 8.32004 13.3805 7.72478 13.151 7.16936C12.9215 6.61394 12.5846 6.10929 12.1597 5.68434C11.7347 5.2594 11.2301 4.92252 10.6746 4.69303C10.1192 4.46354 9.52396 4.34595 8.923 4.347ZM8.923 11.894C8.335 11.894 7.7602 11.7196 7.27129 11.393C6.78238 11.0663 6.40133 10.602 6.17631 10.0587C5.95129 9.51547 5.89241 8.9177 6.00713 8.341C6.12184 7.76429 6.40499 7.23456 6.82077 6.81877C7.23655 6.40299 7.76629 6.11984 8.343 6.00513C8.9197 5.89041 9.51747 5.94929 10.0607 6.17431C10.604 6.39933 11.0683 6.78038 11.395 7.26929C11.7216 7.7582 11.896 8.333 11.896 8.921C11.8944 9.709 11.5807 10.4643 11.0235 11.0215C10.4663 11.5787 9.711 11.8924 8.923 11.894ZM14.75 4.16C14.75 4.37104 14.6874 4.57733 14.5702 4.75279C14.4529 4.92826 14.2863 5.06502 14.0913 5.14578C13.8964 5.22654 13.6818 5.24767 13.4748 5.2065C13.2679 5.16533 13.0777 5.06371 12.9285 4.91448C12.7793 4.76526 12.6777 4.57514 12.6365 4.36816C12.5953 4.16118 12.6165 3.94665 12.6972 3.75168C12.778 3.55671 12.9147 3.39007 13.0902 3.27282C13.2657 3.15558 13.472 3.093 13.683 3.093C13.8233 3.09247 13.9623 3.1197 14.0921 3.17312C14.2218 3.22655 14.3397 3.30511 14.439 3.40428C14.5383 3.50345 14.6169 3.62128 14.6705 3.75098C14.724 3.88068 14.7514 4.01969 14.751 4.16H14.75ZM17.775 5.242C17.8045 3.85507 17.2868 2.51226 16.334 1.504C15.3237 0.554406 13.9823 0.0372848 12.596 0.063C11.123 -0.021 6.709 -0.021 5.236 0.063C3.85013 0.0353522 2.50847 0.551131 1.498 1.5C0.549305 2.51044 0.034171 3.8523 0.063 5.238C-0.021 6.711 -0.021 11.125 0.063 12.598C0.0335268 13.9849 0.551177 15.3277 1.504 16.336C2.51461 17.2843 3.85534 17.801 5.241 17.776C6.714 17.86 11.128 17.86 12.601 17.776C13.9879 17.8055 15.3307 17.2878 16.339 16.335C17.2865 15.3242 17.8018 13.9832 17.775 12.598C17.863 11.125 17.863 6.715 17.775 5.242ZM15.875 14.176C15.7237 14.561 15.4946 14.9106 15.2021 15.2031C14.9096 15.4956 14.56 15.7247 14.175 15.876C13.001 16.342 10.214 16.234 8.917 16.234C7.62 16.234 4.829 16.334 3.659 15.876C3.27403 15.7247 2.9244 15.4956 2.6319 15.2031C2.33941 14.9106 2.11034 14.561 1.959 14.176C1.493 13.002 1.601 10.215 1.601 8.918C1.601 7.621 1.501 4.83 1.959 3.66C2.11034 3.27504 2.33941 2.92539 2.6319 2.6329C2.9244 2.34041 3.27403 2.11135 3.659 1.96C4.833 1.494 7.62 1.602 8.917 1.602C10.214 1.602 13.005 1.502 14.175 1.96C14.56 2.11135 14.9096 2.34041 15.2021 2.6329C15.4946 2.92539 15.7237 3.27504 15.875 3.66C16.341 4.834 16.233 7.621 16.233 8.918C16.233 10.215 16.343 13.008 15.875 14.176Z" fill="#1D1D1F"/>
</svg>
