<svg width="20" height="20" viewBox="0 0 20 20" fill="none" xmlns="http://www.w3.org/2000/svg">
<path d="M5.55 5.54619C6.00398 5.09146 6.31298 4.51235 6.43795 3.88206C6.56291 3.25177 6.49824 2.59858 6.25209 2.00504C6.00595 1.41149 5.58939 0.904226 5.05504 0.54735C4.5207 0.190473 3.89256 0 3.25 0C2.60744 0 1.9793 0.190473 1.44496 0.54735C0.910615 0.904226 0.494051 1.41149 0.247908 2.00504C0.00176547 2.59858 -0.0629097 3.25177 0.062056 3.88206C0.187022 4.51235 0.49602 5.09146 0.950001 5.54619C1.25186 5.84855 1.61038 6.08843 2.00504 6.25209C2.3997 6.41576 2.82275 6.5 3.25 6.5C3.67725 6.5 4.10031 6.41576 4.49497 6.25209C4.88963 6.08843 5.24814 5.84855 5.55 5.54619ZM18.55 13.9462C18.0953 13.4922 17.5162 13.1832 16.8859 13.0582C16.2556 12.9333 15.6024 12.998 15.0088 13.2441C14.4153 13.4902 13.908 13.9068 13.5512 14.4411C13.1943 14.9755 13.0038 15.6036 13.0038 16.2462C13.0038 16.8888 13.1943 17.5169 13.5512 18.0512C13.908 18.5856 14.4153 19.0021 15.0088 19.2483C15.6024 19.4944 16.2556 19.5591 16.8859 19.4341C17.5162 19.3092 18.0953 19.0002 18.55 18.5462C18.8524 18.2443 19.0922 17.8858 19.2559 17.4912C19.4196 17.0965 19.5038 16.6734 19.5038 16.2462C19.5038 15.8189 19.4196 15.3959 19.2559 15.0012C19.0922 14.6066 18.8524 14.2481 18.55 13.9462ZM18.45 2.19419L17.302 1.04619C17.1511 0.894893 16.9719 0.77485 16.7746 0.692942C16.5772 0.611035 16.3657 0.568873 16.152 0.568873C15.9383 0.568873 15.7268 0.611035 15.5294 0.692942C15.3321 0.77485 15.1529 0.894893 15.002 1.04619L1.053 14.9992C0.901702 15.1501 0.781659 15.3293 0.699751 15.5266C0.617844 15.724 0.575682 15.9355 0.575682 16.1492C0.575682 16.3629 0.617844 16.5744 0.699751 16.7718C0.781659 16.9691 0.901702 17.1483 1.053 17.2992L2.202 18.4462C2.35286 18.5975 2.5321 18.7175 2.72944 18.7994C2.92678 18.8814 3.13834 18.9235 3.352 18.9235C3.56566 18.9235 3.77723 18.8814 3.97456 18.7994C4.1719 18.7175 4.35114 18.5975 4.502 18.4462L18.451 4.49319C18.6023 4.34233 18.7223 4.16309 18.8043 3.96575C18.8862 3.76842 18.9283 3.55685 18.9283 3.34319C18.9283 3.12953 18.8862 2.91797 18.8043 2.72063C18.7223 2.52329 18.6023 2.34406 18.451 2.19319L18.45 2.19419Z" fill="#06C167"/>
</svg>
