<svg width="16" height="15" viewBox="0 0 16 15" fill="none" xmlns="http://www.w3.org/2000/svg">
<path d="M6.7946 0.507726L4.9356 4.27873L0.775604 4.88573C0.607768 4.91111 0.450348 4.98284 0.321058 5.09282C0.191768 5.20281 0.0957394 5.3467 0.043779 5.5083C-0.00818136 5.66989 -0.0140115 5.84279 0.0269447 6.00752C0.0679008 6.17225 0.154018 6.32228 0.275605 6.44073L3.2856 9.37372L2.5736 13.5167C2.54506 13.6841 2.56387 13.8562 2.62792 14.0135C2.69197 14.1707 2.79871 14.307 2.93608 14.4068C3.07346 14.5067 3.236 14.5661 3.40537 14.5785C3.57475 14.5908 3.7442 14.5556 3.8946 14.4767L7.6166 12.5207L11.3386 14.4767C11.489 14.5556 11.6585 14.5908 11.8278 14.5785C11.9972 14.5661 12.1598 14.5067 12.2971 14.4068C12.4345 14.307 12.5412 14.1707 12.6053 14.0135C12.6693 13.8562 12.6882 13.6841 12.6596 13.5167L11.9436 9.37273L14.9536 6.43973C15.0752 6.32128 15.1613 6.17125 15.2023 6.00652C15.2432 5.84179 15.2374 5.66889 15.1854 5.5073C15.1335 5.3457 15.0374 5.20181 14.9082 5.09182C14.7789 4.98183 14.6214 4.91011 14.4536 4.88473L10.2936 4.27773L8.42961 0.507726C8.35423 0.355296 8.23773 0.226978 8.09327 0.137261C7.94882 0.0475431 7.78215 0 7.6121 0C7.44206 0 7.27539 0.0475431 7.13094 0.137261C6.98648 0.226978 6.86998 0.355296 6.7946 0.507726Z" fill="#06C167"/>
</svg>
