<svg width="33" height="26" viewBox="0 0 33 26" fill="none" xmlns="http://www.w3.org/2000/svg">
<path d="M31.688 17.875H30.876V12.386C30.8747 11.7401 30.6172 11.1212 30.16 10.665L25.086 5.591C24.6298 5.1338 24.0109 4.87629 23.365 4.875H21.125V2.438C21.125 1.79158 20.8683 1.17161 20.4113 0.714427C19.9543 0.257242 19.3344 0.000265145 18.688 0L2.438 0C1.7914 0 1.17129 0.25686 0.714074 0.714074C0.25686 1.17129 0 1.7914 0 2.438L0 18.688C0 19.3346 0.25686 19.9547 0.714074 20.4119C1.17129 20.8691 1.7914 21.126 2.438 21.126H3.25C3.25 22.4189 3.76361 23.6589 4.67785 24.5731C5.59209 25.4874 6.83207 26.001 8.125 26.001C9.41793 26.001 10.6579 25.4874 11.5721 24.5731C12.4864 23.6589 13 22.4189 13 21.126H19.5C19.5 22.4189 20.0136 23.6589 20.9279 24.5731C21.8421 25.4874 23.0821 26.001 24.375 26.001C25.6679 26.001 26.9079 25.4874 27.8221 24.5731C28.7364 23.6589 29.25 22.4189 29.25 21.126H31.688C31.9033 21.1255 32.1096 21.0398 32.2619 20.8876C32.4143 20.7355 32.5002 20.5293 32.501 20.314V18.688C32.5005 18.4725 32.4146 18.2661 32.2623 18.1137C32.1099 17.9614 31.9035 17.8755 31.688 17.875ZM8.125 23.563C7.64277 23.563 7.17136 23.42 6.77042 23.1521C6.36947 22.8841 6.05698 22.5033 5.87249 22.0578C5.68799 21.6122 5.63977 21.122 5.73392 20.649C5.82807 20.176 6.06037 19.7416 6.40143 19.4007C6.74249 19.0598 7.17699 18.8277 7.64998 18.7337C8.12297 18.6398 8.61321 18.6882 9.05868 18.8729C9.50414 19.0575 9.88484 19.3702 10.1526 19.7712C10.4204 20.1723 10.5632 20.6438 10.563 21.126C10.5627 21.7724 10.3058 22.3923 9.84857 22.8493C9.39139 23.3063 8.77142 23.563 8.125 23.563ZM24.375 23.563C23.8928 23.563 23.4214 23.42 23.0204 23.1521C22.6195 22.8841 22.307 22.5033 22.1225 22.0578C21.938 21.6122 21.8898 21.122 21.9839 20.649C22.0781 20.176 22.3104 19.7416 22.6514 19.4007C22.9925 19.0598 23.427 18.8277 23.9 18.7337C24.373 18.6398 24.8632 18.6882 25.3087 18.8729C25.7541 19.0575 26.1348 19.3702 26.4026 19.7712C26.6704 20.1723 26.8132 20.6438 26.813 21.126C26.8127 21.7724 26.5558 22.3923 26.0986 22.8493C25.6414 23.3063 25.0214 23.563 24.375 23.563ZM28.438 13H21.125V7.313H23.364L28.437 12.386L28.438 13Z" fill="#06C167"/>
</svg>
