<svg width="26" height="23" viewBox="0 0 26 23" fill="none" xmlns="http://www.w3.org/2000/svg">
<path d="M23.42 4.874H4.063C3.85244 4.86661 3.65298 4.77777 3.50664 4.62621C3.3603 4.47464 3.27851 4.27218 3.27851 4.0615C3.27851 3.85082 3.3603 3.64836 3.50664 3.49679C3.65298 3.34523 3.85244 3.25639 4.063 3.249H23.563C23.6697 3.24913 23.7754 3.22823 23.874 3.18748C23.9727 3.14673 24.0623 3.08694 24.1378 3.01152C24.2133 2.93611 24.2732 2.84655 24.3141 2.74797C24.355 2.64939 24.376 2.54372 24.376 2.437C24.376 2.11697 24.313 1.80007 24.1905 1.5044C24.068 1.20873 23.8885 0.940077 23.6622 0.713781C23.4359 0.487484 23.1673 0.307976 22.8716 0.185506C22.5759 0.0630348 22.259 0 21.939 0H3.25C2.38822 -4.07943e-08 1.56172 0.342272 0.952256 0.951549C0.342792 1.56083 0.000265163 2.38722 0 3.249L0 19.499C0 20.361 0.34241 21.1876 0.951903 21.7971C1.5614 22.4066 2.38805 22.749 3.25 22.749H23.42C24.085 22.7668 24.7299 22.5203 25.2134 22.0635C25.697 21.6067 25.9799 20.9769 26 20.312V7.312C25.9801 6.64693 25.6974 6.01686 25.2138 5.55986C24.7302 5.10287 24.0851 4.85624 23.42 4.874ZM21.12 15.437C20.7986 15.437 20.4844 15.3417 20.2172 15.1631C19.95 14.9846 19.7417 14.7308 19.6187 14.4339C19.4957 14.1369 19.4635 13.8102 19.5262 13.495C19.5889 13.1798 19.7437 12.8902 19.971 12.663C20.1982 12.4357 20.4878 12.2809 20.803 12.2182C21.1182 12.1555 21.4449 12.1877 21.7419 12.3107C22.0388 12.4337 22.2926 12.642 22.4711 12.9092C22.6497 13.1764 22.745 13.4906 22.745 13.812C22.745 14.2421 22.5745 14.6547 22.2708 14.9593C21.9672 15.2639 21.5551 15.4357 21.125 15.437H21.12Z" fill="#06C167"/>
</svg>
